<?xml version="1.0" encoding="UTF-8" standalone="no"?>
<!-- Created with Inkscape (http://www.inkscape.org/) -->

<svg
   xmlns:dc="http://purl.org/dc/elements/1.1/"
   xmlns:cc="http://creativecommons.org/ns#"
   xmlns:rdf="http://www.w3.org/1999/02/22-rdf-syntax-ns#"
   xmlns:svg="http://www.w3.org/2000/svg"
   xmlns="http://www.w3.org/2000/svg"
   xmlns:sodipodi="http://sodipodi.sourceforge.net/DTD/sodipodi-0.dtd"
   xmlns:inkscape="http://www.inkscape.org/namespaces/inkscape"
   version="1.1"
   id="svg2"
   xml:space="preserve"
   width="4368"
   height="1752"
   viewBox="0 0 4368 1752"
   sodipodi:docname="tntorch.svg"
   inkscape:version="0.92.3 (2405546, 2018-03-11)"><metadata
     id="metadata8"><rdf:RDF><cc:Work
         rdf:about=""><dc:format>image/svg+xml</dc:format><dc:type
           rdf:resource="http://purl.org/dc/dcmitype/StillImage" /><dc:title></dc:title></cc:Work></rdf:RDF></metadata><defs
     id="defs6"><clipPath
       clipPathUnits="userSpaceOnUse"
       id="clipPath20"><path
         d="M 0,0 H 3276 V 1314 H 0 Z"
         id="path18"
         inkscape:connector-curvature="0" /></clipPath></defs><sodipodi:namedview
     pagecolor="#ffffff"
     bordercolor="#666666"
     borderopacity="1"
     objecttolerance="10"
     gridtolerance="10"
     guidetolerance="10"
     inkscape:pageopacity="0"
     inkscape:pageshadow="2"
     inkscape:window-width="785"
     inkscape:window-height="480"
     id="namedview4"
     showgrid="false"
     inkscape:zoom="0.075549451"
     inkscape:cx="2210.4727"
     inkscape:cy="823.05455"
     inkscape:window-x="0"
     inkscape:window-y="27"
     inkscape:window-maximized="0"
     inkscape:current-layer="g10" /><g
     id="g10"
     inkscape:groupmode="layer"
     inkscape:label="tntorch"
     transform="matrix(1.3333333,0,0,-1.3333333,0,1752)"><g
       id="g12" /><g
       id="g14"><g
         id="g16"
         clip-path="url(#clipPath20)"><path
           d="M 0,1314 H 3276 V 0 H 0 Z"
           style="fill:#ffffff;fill-opacity:1;fill-rule:nonzero;stroke:none"
           id="path22"
           inkscape:connector-curvature="0" /><g
           id="g24"
           transform="matrix(1,0,0,-1,1701.062,589)"><text
             transform="translate(-1360.32,292)"
             style="font-variant:normal;font-weight:bold;font-size:790px;font-family:Helvetica;-inkscape-font-specification:Helvetica-Bold;writing-mode:lr-tb;fill:#2980b9;fill-opacity:1;fill-rule:nonzero;stroke:none"
             id="text28"><tspan
               x="0 263.07001 745.60199 1008.672 1491.204 1798.672 2238.0701"
               y="0"
               sodipodi:role="line"
               id="tspan26">tntorch</tspan></text>
</g><path
           d="M 1260,1098 V 855 h -108 v 243 z"
           style="fill:#2980b9;fill-opacity:1;fill-rule:nonzero;stroke:none"
           id="path30"
           inkscape:connector-curvature="0" /><path
           d="M 243,945 H 2920.219 V 837 H 243 Z"
           style="fill:#2980b9;fill-opacity:1;fill-rule:nonzero;stroke:none"
           id="path32"
           inkscape:connector-curvature="0" /><path
           d="m 1269.64,954.6395 c 35.147,-35.1471 35.147,-92.1319 0,-127.279 -35.148,-35.1474 -92.132,-35.1474 -127.28,0 -35.147,35.1471 -35.147,92.1319 0,127.279 35.148,35.1474 92.132,35.1474 127.28,0"
           style="fill:#ffffff;fill-opacity:1;fill-rule:nonzero;stroke:none"
           id="path34"
           inkscape:connector-curvature="0" /><g
           id="g36"
           transform="matrix(1,0,0,-1,-1116,1674)"><path
             d="m 2385.64,719.3605 c 35.147,35.1471 35.147,92.1319 0,127.279 -35.148,35.1474 -92.132,35.1474 -127.28,0 -35.147,-35.1471 -35.147,-92.1319 0,-127.279 35.148,-35.1474 92.132,-35.1474 127.28,0"
             style="fill:none;stroke:#2980b9;stroke-width:19;stroke-linecap:round;stroke-linejoin:round;stroke-miterlimit:10;stroke-dasharray:none;stroke-opacity:1"
             id="path38"
             inkscape:connector-curvature="0" /></g><path
           d="M 504,1098 V 873 H 396 v 225 z"
           style="fill:#2980b9;fill-opacity:1;fill-rule:nonzero;stroke:none"
           id="path40"
           inkscape:connector-curvature="0" /><path
           d="m 513.6395,954.6395 c 35.1474,-35.1471 35.1474,-92.1319 0,-127.279 -35.1471,-35.1474 -92.1319,-35.1474 -127.279,0 -35.1474,35.1471 -35.1474,92.1319 0,127.279 35.1471,35.1474 92.1319,35.1474 127.279,0"
           style="fill:#ffffff;fill-opacity:1;fill-rule:nonzero;stroke:none"
           id="path42"
           inkscape:connector-curvature="0" /><g
           id="g44"
           transform="matrix(1,0,0,-1,-1116,1674)"><path
             d="m 1629.64,719.3605 c 35.147,35.1471 35.147,92.1319 0,127.279 -35.148,35.1474 -92.132,35.1474 -127.28,0 -35.147,-35.1471 -35.147,-92.1319 0,-127.279 35.148,-35.1474 92.132,-35.1474 127.28,0"
             style="fill:none;stroke:#2980b9;stroke-width:19;stroke-linecap:round;stroke-linejoin:round;stroke-miterlimit:10;stroke-dasharray:none;stroke-opacity:1"
             id="path46"
             inkscape:connector-curvature="0" /></g><path
           d="M 2736,1098 V 873 h -108 v 225 z"
           style="fill:#2980b9;fill-opacity:1;fill-rule:nonzero;stroke:none"
           id="path48"
           inkscape:connector-curvature="0" /><path
           d="m 2745.64,954.6395 c 35.147,-35.1471 35.147,-92.1319 0,-127.279 -35.148,-35.1474 -92.132,-35.1474 -127.28,0 -35.147,35.1471 -35.147,92.1319 0,127.279 35.148,35.1474 92.132,35.1474 127.28,0"
           style="fill:#ffffff;fill-opacity:1;fill-rule:nonzero;stroke:none"
           id="path50"
           inkscape:connector-curvature="0" /><g
           id="g52"
           transform="matrix(1,0,0,-1,-1116,1674)"><path
             d="m 3861.64,719.3605 c 35.147,35.1471 35.147,92.1319 0,127.279 -35.148,35.1474 -92.132,35.1474 -127.28,0 -35.147,-35.1471 -35.147,-92.1319 0,-127.279 35.148,-35.1474 92.132,-35.1474 127.28,0"
             style="fill:none;stroke:#2980b9;stroke-width:19;stroke-linecap:round;stroke-linejoin:round;stroke-miterlimit:10;stroke-dasharray:none;stroke-opacity:1"
             id="path54"
             inkscape:connector-curvature="0" /></g></g></g></g></svg>